<svg width="20" height="18" viewBox="0 0 20 18" fill="none" xmlns="http://www.w3.org/2000/svg">
<g id="Vector">
<path id="Vector_2" d="M6.44439 9.92339L6.90539 9.72979L6.44439 9.92339ZM4.26519 4.73442L3.80419 4.92803L4.26519 4.73442ZM18.8259 5.52928L19.2622 5.77357L18.8259 5.52928ZM16.2611 10.1097L16.6973 10.354L16.6973 10.354L16.2611 10.1097ZM16.2037 14.1061C16.4799 14.1061 16.7037 13.8822 16.7037 13.6061C16.7037 13.3299 16.4799 13.1061 16.2037 13.1061V14.1061ZM15.1177 11.197C15.3939 11.197 15.6177 10.9731 15.6177 10.697C15.6177 10.4208 15.3939 10.197 15.1177 10.197V11.197ZM4.79055 12.1793L4.32212 12.0045L4.79055 12.1793ZM4.90495 11.8895L4.45198 11.6778H4.45198L4.90495 11.8895ZM6.7497 10.7022L6.78254 11.2011L6.7497 10.7022ZM5.64382 13.6L5.69356 13.1025H5.69356L5.64382 13.6ZM4.70259 12.434L4.21629 12.3178L4.70259 12.434ZM1 0.5C0.723858 0.5 0.5 0.723858 0.5 1C0.5 1.27614 0.723858 1.5 1 1.5V0.5ZM4.75298 2.3261L5.22141 2.15124L4.75298 2.3261ZM4.8755 4.08396C4.97207 4.34266 5.26008 4.47409 5.51879 4.37752C5.77749 4.28094 5.90892 3.99293 5.81235 3.73423L4.8755 4.08396ZM4.11019 1.18304L3.8396 1.60349L3.8396 1.60349L4.11019 1.18304ZM8.47806 11.6818H14.3184V10.6818H8.47806V11.6818ZM6.90539 9.72979L4.72618 4.54082L3.80419 4.92803L5.9834 10.117L6.90539 9.72979ZM5.28202 3.92424H17.3689V2.92424H5.28202V3.92424ZM18.3897 5.28499L15.8248 9.86546L16.6973 10.354L19.2622 5.77357L18.3897 5.28499ZM17.3689 3.92424C17.8146 3.92424 18.1587 4.13171 18.3435 4.39865C18.5248 4.66067 18.5593 4.98208 18.3897 5.28499L19.2622 5.77357C19.6341 5.10935 19.5455 4.37824 19.1657 3.82953C18.7894 3.28573 18.1342 2.92424 17.3689 2.92424V3.92424ZM4.72618 4.54082C4.66951 4.40588 4.69159 4.26778 4.78442 4.14816C4.88006 4.02493 5.0535 3.92424 5.28202 3.92424V2.92424C4.25687 2.92424 3.3662 3.88513 3.80419 4.92803L4.72618 4.54082ZM14.3184 11.6818C15.3016 11.6818 16.2314 11.1861 16.6973 10.354L15.8248 9.86546C15.5549 10.3475 14.9805 10.6818 14.3184 10.6818V11.6818ZM8.47806 10.6818C7.74741 10.6818 7.13551 10.2777 6.90539 9.72979L5.9834 10.117C6.38907 11.083 7.39798 11.6818 8.47806 11.6818V10.6818ZM16.2467 16.0303C16.2467 16.238 16.0391 16.5 15.6607 16.5V17.5C16.4819 17.5 17.2467 16.8937 17.2467 16.0303H16.2467ZM15.6607 16.5C15.2824 16.5 15.0748 16.238 15.0748 16.0303H14.0748C14.0748 16.8937 14.8396 17.5 15.6607 17.5V16.5ZM15.0748 16.0303C15.0748 15.8226 15.2824 15.5606 15.6607 15.5606V14.5606C14.8396 14.5606 14.0748 15.1669 14.0748 16.0303H15.0748ZM15.6607 15.5606C16.0391 15.5606 16.2467 15.8226 16.2467 16.0303H17.2467C17.2467 15.1669 16.4819 14.5606 15.6607 14.5606V15.5606ZM7.55887 16.0303C7.55887 16.238 7.35127 16.5 6.97289 16.5V17.5C7.79405 17.5 8.55887 16.8937 8.55887 16.0303H7.55887ZM6.97289 16.5C6.59451 16.5 6.38691 16.238 6.38691 16.0303H5.38691C5.38691 16.8937 6.15173 17.5 6.97289 17.5V16.5ZM6.38691 16.0303C6.38691 15.8226 6.59451 15.5606 6.97289 15.5606V14.5606C6.15173 14.5606 5.38691 15.1669 5.38691 16.0303H6.38691ZM6.97289 15.5606C7.35127 15.5606 7.55887 15.8226 7.55887 16.0303H8.55887C8.55887 15.1669 7.79405 14.5606 6.97289 14.5606V15.5606ZM16.2037 13.1061H5.94219V14.1061H16.2037V13.1061ZM7.09384 11.197H15.1177V10.197H7.09384V11.197ZM5.25897 12.3542C5.31776 12.1967 5.33764 12.1446 5.35793 12.1012L4.45198 11.6778C4.41068 11.7661 4.37482 11.8633 4.32212 12.0045L5.25897 12.3542ZM7.09384 10.197C6.92479 10.197 6.81697 10.1967 6.71686 10.2033L6.78254 11.2011C6.8419 11.1972 6.91035 11.197 7.09384 11.197V10.197ZM5.35793 12.1012C5.58706 11.6109 6.12614 11.2443 6.78254 11.2011L6.71686 10.2033C5.74058 10.2676 4.85332 10.819 4.45198 11.6778L5.35793 12.1012ZM5.94219 13.1061C5.76975 13.1061 5.72241 13.1054 5.69356 13.1025L5.59408 14.0976C5.6857 14.1067 5.79712 14.1061 5.94219 14.1061V13.1061ZM4.32212 12.0045C4.27786 12.123 4.23797 12.227 4.21629 12.3178L5.1889 12.5502C5.19251 12.5351 5.20283 12.5046 5.25897 12.3542L4.32212 12.0045ZM5.69356 13.1025C5.2939 13.0626 5.13923 12.758 5.1889 12.5502L4.21629 12.3178C3.99794 13.2314 4.71754 14.0099 5.59408 14.0976L5.69356 13.1025ZM1 1.5H2.69248V0.5H1V1.5ZM4.28456 2.50097L4.8755 4.08396L5.81235 3.73423L5.22141 2.15124L4.28456 2.50097ZM2.69248 1.5C3.08055 1.5 3.33408 1.5006 3.5273 1.5203C3.71084 1.53901 3.7893 1.57111 3.8396 1.60349L4.38079 0.762588C4.14669 0.611925 3.89406 0.552507 3.62872 0.525458C3.37307 0.499396 3.05995 0.5 2.69248 0.5V1.5ZM5.22141 2.15124C5.10624 1.84273 5.00489 1.56872 4.89207 1.35218C4.77166 1.12106 4.61929 0.916084 4.38079 0.762587L3.8396 1.60349C3.8855 1.63303 3.93507 1.67958 4.00522 1.81423C4.08296 1.96345 4.1608 2.16946 4.28456 2.50097L5.22141 2.15124Z" fill="#F7F7F7"/>
</g>
</svg>
