<svg width="20" height="20" viewBox="0 0 20 20" fill="none" xmlns="http://www.w3.org/2000/svg">
<path d="M11.6663 5.83334V5.83334C11.6663 5.36869 11.6663 5.13636 11.6279 4.94316C11.4701 4.14978 10.8499 3.52959 10.0565 3.37177C9.86332 3.33334 9.631 3.33334 9.16634 3.33334H7.33301C5.44739 3.33334 4.50458 3.33334 3.91879 3.91913C3.33301 4.50492 3.33301 5.44773 3.33301 7.33335V9.16668C3.33301 9.63133 3.33301 9.86366 3.37144 10.0569C3.52925 10.8502 4.14945 11.4704 4.94283 11.6282C5.13603 11.6667 5.36835 11.6667 5.83301 11.6667V11.6667" stroke="#F7F7F7" stroke-width="2"/>
<rect x="8.33301" y="8.33334" width="8.33333" height="8.33333" rx="2" stroke="#F7F7F7" stroke-width="2"/>
</svg>
