<svg width="15" height="18" viewBox="0 0 15 18" fill="none" xmlns="http://www.w3.org/2000/svg">
<g id="Vector">
<path id="Vector_2" d="M7.57715 13.5L6.87004 14.2071L7.57715 14.9142L8.28426 14.2071L7.57715 13.5ZM8.57715 1.5C8.57715 0.947715 8.12943 0.5 7.57715 0.5C7.02486 0.5 6.57715 0.947715 6.57715 1.5L8.57715 1.5ZM0.870042 8.20711L6.87004 14.2071L8.28426 12.7929L2.28426 6.79289L0.870042 8.20711ZM8.28426 14.2071L14.2843 8.20711L12.87 6.79289L6.87004 12.7929L8.28426 14.2071ZM8.57715 13.5V1.5L6.57715 1.5L6.57715 13.5H8.57715ZM0.577148 17.5H14.5771V15.5L0.577149 15.5L0.577148 17.5Z" fill="#F7F7F7"/>
</g>
</svg>
