<svg width="24" height="24" viewBox="0 0 24 24" fill="none" xmlns="http://www.w3.org/2000/svg">
<path fill-rule="evenodd" clip-rule="evenodd" d="M4.5 3C3.11929 3 2 4.11929 2 5.5V18.5C2 19.8807 3.11929 21 4.5 21H19.5C20.8807 21 22 19.8807 22 18.5V8C22 6.61929 20.8807 5.5 19.5 5.5H13.25L11.3358 3.58579C10.9607 3.21071 10.452 3 9.92157 3H4.5ZM5 5C4.44772 5 4 5.44772 4 6V7.5C4 8.05228 4.44771 8.5 5 8.5H10.27C10.416 8.5 10.5547 8.43622 10.6497 8.3254L11.7211 7.0754C11.8816 6.88815 11.8816 6.61185 11.7211 6.4246L10.6497 5.1746C10.5547 5.06378 10.416 5 10.27 5H5Z" fill="white"/>
</svg>
