<svg width="24" height="24" viewBox="0 0 24 24" fill="none" xmlns="http://www.w3.org/2000/svg">
<path fill-rule="evenodd" clip-rule="evenodd" d="M4.25 4C3.00736 4 2 5.00736 2 6.25V17.75C2 18.9926 3.00736 20 4.25 20H20.75C21.9926 20 23 18.9926 23 17.75V6.25C23 5.00736 21.9926 4 20.75 4H4.25ZM4 17V15.1431C4 14.9273 4.06982 14.7173 4.19902 14.5444L8.43934 8.87132C9.02513 8.28553 9.97487 8.28553 10.5607 8.87132L15.7197 15.0303C16.0126 15.3232 16.4874 15.3232 16.7803 15.0303C17.0732 14.7374 17.0732 14.2626 16.7803 13.9697L15.8107 13L16.6893 12.1213C17.2751 11.5355 18.2249 11.5355 18.8107 12.1213L20.7755 14.5349C20.9207 14.7133 21 14.9362 21 15.1662V17C21 17.5523 20.5523 18 20 18H5C4.44772 18 4 17.5523 4 17ZM16 6.75C15.1716 6.75 14.5 7.42157 14.5 8.25C14.5 9.07843 15.1716 9.75 16 9.75C16.8284 9.75 17.5 9.07843 17.5 8.25C17.5 7.42157 16.8284 6.75 16 6.75Z" fill="white"/>
</svg>
