<svg width="17" height="15" viewBox="0 0 17 15" fill="none" xmlns="http://www.w3.org/2000/svg">
<g id="Vector 15">
<path id="Vector 15_2" d="M2.33907 8.33314L8.01303 13.2641C8.12011 13.3571 8.17365 13.4036 8.22853 13.4329C8.39658 13.5224 8.60342 13.5224 8.77147 13.4329C8.82635 13.4036 8.87989 13.3571 8.98697 13.2641L14.6609 8.33315C16.2573 6.9458 16.4512 4.66277 15.1085 3.06182L14.8561 2.7608C13.2499 0.845614 10.0258 1.1668 8.89716 3.35444C8.73774 3.66345 8.26226 3.66345 8.10284 3.35444C6.97421 1.1668 3.75013 0.845612 2.14392 2.7608L1.89145 3.06182C0.548788 4.66277 0.742649 6.94579 2.33907 8.33314Z" fill="#F7F7F7" fill-opacity="0.8" stroke="#F7F7F7" stroke-opacity="0.8" stroke-width="2"/>
</g>
</svg>
