<svg width="24" height="24" viewBox="0 0 24 24" fill="none" xmlns="http://www.w3.org/2000/svg">
<path d="M16.2222 3.5C15.4029 3.5 14.5948 3.69202 13.8619 4.06085C13.1291 4.42969 12.4916 4.9652 12 5.62499C11.3354 4.73299 10.4088 4.0741 9.35144 3.74165C8.29411 3.40919 7.15967 3.42003 6.1088 3.77262C5.05793 4.12521 4.14391 4.80168 3.49622 5.70621C2.84853 6.61074 2.5 7.69747 2.5 8.81247C2.5 15.1786 11.2875 20.1989 11.6569 20.4114C11.7616 20.4706 11.8799 20.5011 12 20.4999C12.1202 20.502 12.2387 20.4714 12.3431 20.4114C13.9613 19.4591 15.4791 18.3436 16.8731 17.0822C19.9431 14.302 21.5 11.5218 21.5 8.81247C21.5 7.40351 20.944 6.05227 19.9542 5.05599C18.9644 4.0597 17.622 3.5 16.2222 3.5Z" fill="white"/>
</svg>
