<svg width="24" height="24" viewBox="0 0 24 24" fill="none" xmlns="http://www.w3.org/2000/svg">
<path d="M18.9831 11.7253C18.9595 11.6232 18.9108 11.5285 18.8414 11.4498C18.772 11.371 18.6841 11.3107 18.5855 11.274L14.0043 10.5642L15.1655 3.76193C15.1922 3.62752 15.1749 3.48814 15.1162 3.36421C15.0576 3.24027 14.9605 3.13831 14.8394 3.07325C14.717 3.00848 14.5766 2.98578 14.44 3.00869C14.3033 3.03159 14.1781 3.09882 14.0838 3.1999L5.17593 12.6989C5.10294 12.7743 5.05012 12.8667 5.02233 12.9676C4.99454 13.0686 4.99266 13.1749 5.01686 13.2768C5.04176 13.3783 5.09091 13.4723 5.16015 13.5508C5.22938 13.6294 5.31665 13.6902 5.41453 13.728L9.99573 14.4378L8.83452 21.2401C8.80782 21.3745 8.82507 21.5139 8.88375 21.6378C8.94244 21.7617 9.03946 21.8637 9.16061 21.9288C9.25193 21.9746 9.35261 21.999 9.45489 22C9.54132 22.0004 9.6269 21.983 9.70628 21.9489C9.78565 21.9149 9.85711 21.8649 9.91619 21.8021L18.8241 12.3031C18.8971 12.2277 18.9499 12.1353 18.9777 12.0344C19.0055 11.9334 19.0073 11.8271 18.9831 11.7253Z" fill="white"/>
</svg>
