<svg width="28" height="28" viewBox="0 0 28 28" fill="none" xmlns="http://www.w3.org/2000/svg">
<path d="M17.0105 12.2817L25.0447 7.69606C25.7182 7.31164 26.5794 7.53977 26.9683 8.20561L27.1395 8.49872C28.2468 10.3948 28.288 12.721 27.2484 14.6543C25.982 17.0095 23.0887 17.9953 20.6234 16.9115L17.1764 15.3963C15.8544 14.8152 15.7576 12.9968 17.0105 12.2817Z" fill="#1976D2"/>
<path d="M17.0106 15.7181L25.0448 20.3038C25.7183 20.6882 25.9491 21.5396 25.5602 22.2055L25.389 22.4986C24.2817 24.3946 22.2645 25.593 20.0512 25.6696C17.3548 25.763 15.0445 23.7788 14.7612 21.1262L14.3651 17.4174C14.2132 15.9951 15.7577 15.003 17.0106 15.7181Z" fill="#1976D2"/>
<path d="M14 17.4366V26.6079C14 27.3767 13.3695 28 12.5918 28H12.2495C10.0348 28 7.9764 26.8721 6.80264 25.0155C5.37267 22.7537 5.95574 19.7837 8.13777 18.2148L11.1886 16.0213C12.3587 15.1801 14 16.0063 14 17.4366Z" fill="#1976D2"/>
<path d="M10.9895 15.7183L2.95532 20.3039C2.2818 20.6884 1.42058 20.4602 1.03172 19.7944L0.860542 19.5013C-0.24678 17.6052 -0.287964 15.2789 0.751565 13.3457C2.01801 10.9905 4.9113 10.0047 7.37663 11.0885L10.8236 12.6037C12.1456 13.1848 12.2424 15.0032 10.9895 15.7183Z" fill="#1976D2"/>
<path d="M10.989 12.2815L2.95485 7.69587C2.28133 7.31145 2.05057 6.46005 2.43943 5.79421L2.6106 5.5011C3.71793 3.60503 5.73517 2.40664 7.94846 2.33003C10.6449 2.23669 12.9551 4.22088 13.2384 6.87344L13.6345 10.5822C13.7864 12.0046 12.2419 12.9966 10.989 12.2815Z" fill="#1976D2"/>
<path d="M14 10.5634V1.39212C14 0.623271 14.6305 0 15.4082 0H15.7505C17.9652 0 20.0236 1.12787 21.1974 2.98447C22.6273 5.24634 22.0443 8.21634 19.8622 9.78517L16.8114 11.9787C15.6413 12.8199 14 11.9937 14 10.5634Z" fill="#1976D2"/>
</svg>
