<svg width="18" height="16" viewBox="0 0 18 16" fill="none" xmlns="http://www.w3.org/2000/svg">
<g id="Vector">
<g id="Vector_2">
<path d="M1.38292 1.27573C1.57069 0.663047 1.66457 0.356707 1.94459 0.178353C2.22462 0 2.61171 0 3.38588 0H14.6141C15.3883 0 15.7754 0 16.0554 0.178353C16.3354 0.356707 16.4293 0.663048 16.6171 1.27573L17.8596 5.33001C17.9595 5.65621 18.0095 5.81932 17.9985 5.9518C17.9699 6.29532 17.6878 6.59003 17.2862 6.69598C17.1313 6.73684 16.9205 6.73684 16.4987 6.73684C15.9484 6.73684 15.6732 6.73684 15.4421 6.69292C14.7946 6.56987 14.2593 6.2 14.0041 5.69921C13.913 5.52046 13.8688 5.30405 13.7803 4.87122C13.7556 4.75011 13.7432 4.68956 13.7292 4.67363C13.688 4.62685 13.6027 4.62685 13.5615 4.67363C13.5475 4.68956 13.5351 4.75011 13.5104 4.87122L13.4262 5.28321C13.4173 5.32689 13.4128 5.34872 13.4083 5.36785C13.2262 6.1478 12.401 6.71803 11.428 6.73639C11.4041 6.73684 11.377 6.73684 11.3227 6.73684C11.2684 6.73684 11.2413 6.73684 11.2174 6.73639C10.2444 6.71803 9.41918 6.1478 9.23701 5.36785C9.23254 5.34872 9.22808 5.32689 9.21916 5.28321L9.13498 4.87122C9.11024 4.75011 9.09787 4.68956 9.08384 4.67363C9.04265 4.62685 8.95735 4.62685 8.91616 4.67363C8.90213 4.68956 8.88976 4.75011 8.86502 4.87122L8.78084 5.28321C8.77192 5.32689 8.76746 5.34872 8.76299 5.36785C8.58082 6.1478 7.75565 6.71803 6.78261 6.73639C6.75874 6.73684 6.7316 6.73684 6.67732 6.73684C6.62304 6.73684 6.5959 6.73684 6.57204 6.73639C5.59899 6.71803 4.77382 6.1478 4.59166 5.36785C4.58719 5.34872 4.58273 5.32689 4.5738 5.28321L4.48963 4.87122C4.46489 4.75011 4.45252 4.68956 4.43849 4.67363C4.3973 4.62685 4.31199 4.62685 4.2708 4.67363C4.25677 4.68956 4.2444 4.75011 4.21966 4.87122C4.13123 5.30405 4.08701 5.52046 3.99591 5.69921C3.74067 6.2 3.20543 6.56987 2.55793 6.69292C2.32682 6.73684 2.05163 6.73684 1.50127 6.73684C1.07953 6.73684 0.868657 6.73684 0.71378 6.69598C0.312181 6.59003 0.0301029 6.29532 0.00150355 5.9518C-0.00952587 5.81932 0.0404597 5.65621 0.140431 5.33001L1.38292 1.27573Z" fill="#F7F7F7"/>
<path d="M1.79193 8.00016C1.77389 8.3546 1.77389 8.7707 1.77389 9.26316V14.3158C1.77389 15.1097 1.77389 15.5067 2.07624 15.7534C2.3786 16 2.86523 16 3.83849 16H6.9354V12.6316C6.9354 12.1665 7.39757 11.7895 7.9677 11.7895H10.0323C10.6024 11.7895 11.0646 12.1665 11.0646 12.6316V16H14.1615C15.1348 16 15.6214 16 15.9238 15.7534C16.2261 15.5067 16.2261 15.1097 16.2261 14.3158V9.26316C16.2261 8.7707 16.2261 8.35461 16.2081 8.00016C15.8315 7.99943 15.4463 7.9907 15.0907 7.92314C14.5546 7.82125 14.0624 7.62266 13.6454 7.34886C13.0424 7.74474 12.283 7.98375 11.4638 7.99921C11.4213 8.00001 11.3766 8.00001 11.3339 8H11.3116C11.2688 8.00001 11.224 8.00001 11.1816 7.99921C10.3623 7.98375 9.60297 7.74474 9 7.34886C8.39704 7.74474 7.63768 7.98375 6.81841 7.99921C6.77596 8.00001 6.73126 8.00001 6.68853 8H6.6662C6.62347 8.00001 6.57868 8.00001 6.53623 7.99921C5.71697 7.98375 4.9576 7.74474 4.35464 7.34886C3.93755 7.62266 3.44539 7.82125 2.90925 7.92314C2.55371 7.9907 2.1685 7.99943 1.79193 8.00016Z" fill="#F7F7F7"/>
</g>
</g>
</svg>
