<svg width="24" height="24" viewBox="0 0 24 24" fill="none" xmlns="http://www.w3.org/2000/svg">
<path fill-rule="evenodd" clip-rule="evenodd" d="M7 8C7 5.23772 9.23772 3 12 3C14.7623 3 17 5.23772 17 8V9H19C20.5 9 21 9.72 21 10.6V20.1C21 21.2046 20.1046 22.1 19 22.1H5C3.89543 22.1 3 21.2046 3 20.1V10.6C3 9.72 3.5 9 4.85 9H7V8ZM15 8V9H9V8C9 6.34228 10.3423 5 12 5C13.6577 5 15 6.34228 15 8ZM12 12C10.8954 12 9.94404 12.8968 10 14C10.037 14.7298 10.4088 15.3007 11 15.5816V17C11 17.4142 11.1772 18.5 12 18.5C12.8228 18.5 13 17.4142 13 17V15.5816C13.5912 15.3007 13.963 14.7298 14 14C14.056 12.8968 13.1046 12 12 12Z" fill="white"/>
</svg>
