<svg width="18" height="18" viewBox="0 0 18 18" fill="none" xmlns="http://www.w3.org/2000/svg">
<g id="Vector">
<g id="Vector_2">
<path d="M17.2396 17.1742C17.8349 17.0536 18.1895 16.448 17.8937 15.9315C17.2415 14.7929 16.2142 13.7923 14.9 13.0298C13.2073 12.0478 11.1335 11.5155 9 11.5155C6.86652 11.5155 4.79265 12.0478 3.10005 13.0298C1.78581 13.7923 0.758462 14.7929 0.106336 15.9315C-0.189474 16.448 0.165066 17.0536 0.76037 17.1742C6.19507 18.2753 11.8049 18.2753 17.2396 17.1742Z" fill="#F7F7F7"/>
<path d="M14.3843 5.23432C14.3843 8.12515 11.9737 10.4686 9.00003 10.4686C6.02636 10.4686 3.61573 8.12515 3.61573 5.23432C3.61573 2.34348 6.02636 0 9.00003 0C11.9737 0 14.3843 2.34348 14.3843 5.23432Z" fill="#F7F7F7"/>
</g>
</g>
</svg>
