<svg width="24" height="24" viewBox="0 0 24 24" fill="none" xmlns="http://www.w3.org/2000/svg">
<g clip-path="url(#clip0_342_190)">
<mask id="mask0_342_190" style="mask-type:luminance" maskUnits="userSpaceOnUse" x="0" y="0" width="24" height="24">
<path d="M24 0H0V24H24V0Z" fill="white"/>
</mask>
<g mask="url(#mask0_342_190)">
<path d="M17.9102 2.55247C17.9102 2.30246 17.7402 2.08452 17.4979 2.02388L17.1996 1.94924C16.9007 1.87442 16.6278 1.71973 16.41 1.50168C16.1921 1.28364 16.0376 1.01044 15.9629 0.711289L15.8883 0.41295C15.8277 0.170257 15.6099 0 15.36 0C15.1103 0 14.8926 0.169952 14.8318 0.412355L14.7567 0.711289C14.6821 1.01033 14.5277 1.28346 14.31 1.50149C14.0923 1.71953 13.8196 1.87429 13.5209 1.94924L13.2226 2.02388C12.9803 2.08452 12.8103 2.30246 12.8103 2.55247C12.8103 2.80249 12.9803 3.02042 13.2226 3.08106L13.5209 3.15571C13.8197 3.23052 14.0927 3.38522 14.3105 3.60327C14.5283 3.82131 14.6829 4.09451 14.7576 4.39366L14.8322 4.69224C14.8927 4.93479 15.1105 5.10495 15.3602 5.10495C15.61 5.10495 15.8277 4.93479 15.8883 4.69224L15.9629 4.39366C16.0376 4.09451 16.1921 3.82131 16.41 3.60327C16.6278 3.38522 16.9007 3.23052 17.1996 3.15571L17.4979 3.08106C17.7402 3.02042 17.9102 2.80249 17.9102 2.55247Z" fill="white"/>
<path d="M24 7.5C24 7.15717 23.7667 6.85834 23.4341 6.77519L23.0247 6.67283C22.6145 6.57025 22.2399 6.35812 21.9409 6.05913C21.6419 5.76015 21.4298 5.38553 21.3272 4.97533L21.2248 4.56592C21.1417 4.23332 20.8428 4 20.5 4C20.1572 4 19.8584 4.23332 19.7752 4.56592L19.6728 4.97533C19.5703 5.38553 19.3581 5.76015 19.0591 6.05913C18.7602 6.35812 18.3855 6.57025 17.9753 6.67283L17.5659 6.77519C17.2333 6.85834 17 7.15717 17 7.5C17 7.84283 17.2333 8.14166 17.5659 8.22481L17.9753 8.32717C18.3855 8.42975 18.7602 8.64188 19.0591 8.94087C19.3581 9.23985 19.5703 9.61447 19.6728 10.0247L19.7752 10.4341C19.8584 10.7667 20.1572 11 20.5 11C20.8428 11 21.1417 10.7667 21.2248 10.4341L21.3272 10.0247C21.4298 9.61447 21.6419 9.23985 21.9409 8.94087C22.2399 8.64188 22.6145 8.42975 23.0247 8.32717L23.4341 8.22481C23.7667 8.14166 24 7.84283 24 7.5Z" fill="white"/>
<path d="M9.71348 4.51378C9.98379 3.82874 11.017 3.82874 11.2873 4.51378L13.2371 9.6693C13.322 9.88467 13.5031 10.6172 13.7328 10.6969L18.4521 12.7758C19.1826 13.0293 19.1826 13.9982 18.4521 14.2517L13.7328 15.8346C13.5031 15.9143 13.322 16.6468 13.2371 16.8622L11.2873 21.4862C11.017 22.1713 9.98379 22.1713 9.71348 21.4862L7.76374 16.8622C7.67875 16.6468 7.49768 15.9143 7.26801 15.8346L2.54788 14.2517C1.81737 13.9982 1.81737 13.0293 2.54788 12.7758L7.26801 10.6969C7.49768 10.6172 7.67875 9.88467 7.76374 9.6693L9.71348 4.51378Z" fill="white"/>
</g>
</g>
<defs>
<clipPath id="clip0_342_190">
<rect width="24" height="24" fill="white"/>
</clipPath>
</defs>
</svg>
