<svg width="23" height="18" viewBox="0 0 23 18" fill="none" xmlns="http://www.w3.org/2000/svg">
<g id="Sign_in_squre_fill">
<path id="Subtract" fill-rule="evenodd" clip-rule="evenodd" d="M14.5036 1.951L11.9253 1.61951C8.77326 1.21425 7.19725 1.01162 6.1787 1.90759C5.16016 2.80357 5.16016 4.39255 5.16016 7.57052V8.00001H10.1171L8.11182 5.94913L9.54183 4.5509L13.2085 8.3009L13.8921 9.00001L13.2085 9.69913L9.54183 13.4491L8.11182 12.0509L10.1171 10H5.16016V10.4289C5.16016 13.6069 5.16016 15.1958 6.1787 16.0918C7.19725 16.9878 8.77326 16.7852 11.9253 16.3799H11.9253H11.9253L14.5036 16.0484C16.1658 15.8347 16.9969 15.7278 17.4952 15.1614C17.9935 14.5949 17.9935 13.7569 17.9935 12.0811V5.91834C17.9935 4.24248 17.9935 3.40455 17.4952 2.83806C16.9969 2.27156 16.1658 2.16471 14.5036 1.951Z" fill="#F7F7F7"/>
</g>
</svg>
